<svg width="48" height="48" viewBox="0 0 48 48" fill="none" xmlns="http://www.w3.org/2000/svg">
<path d="M46.4005 23.2001C46.0866 23.2103 45.7656 23.3939 45.6414 23.7027L44.9284 25.4861L43.1571 18.991C43.0696 18.6712 42.7939 18.4385 42.4643 18.4057C42.1285 18.3698 41.8184 18.5478 41.6701 18.8438L39.4919 23.2001H38.2674C39.3855 20.9913 39.9862 18.5379 39.9862 16.0026C39.9862 7.1833 32.8114 0.00805664 23.9917 0.00805664C15.172 0.00805664 7.99717 7.1833 7.99717 16.0026C7.99717 18.5388 8.59846 20.9929 9.71718 23.2022L9.61302 23.2001C9.29123 23.2103 8.97803 23.3939 8.85388 23.7027L8.14082 25.4861L6.36952 18.991C6.28205 18.6712 6.00635 18.4385 5.67676 18.4057C5.33778 18.3698 5.03088 18.5478 4.88253 18.8438L2.70438 23.2001H0V24.7996H3.19891C3.5019 24.7996 3.77841 24.6285 3.91426 24.3575L5.37706 21.4312L7.22563 28.209C7.3162 28.5405 7.6083 28.7772 7.95198 28.7971C7.96678 28.7979 7.98247 28.7983 7.99727 28.7983C8.32296 28.7983 8.61816 28.6004 8.74001 28.2958L10.134 24.8107L10.6706 24.8215C11.081 25.4381 11.5223 26.0371 12.0209 26.5976C12.0428 26.6834 12.0795 26.7666 12.1303 26.8428C14.7552 30.7797 14.9082 31.5955 15.3636 34.0173C15.4479 34.4621 15.5408 34.9561 15.6588 35.5246C15.8623 36.5166 16.443 37.3242 17.2251 37.8294C16.955 38.2176 16.7943 38.6871 16.7943 39.1949C16.7943 40.0469 17.2438 40.7918 17.915 41.2175C17.7165 41.5666 17.594 41.9643 17.594 42.3938C17.594 43.2458 18.0435 43.9907 18.7147 44.4164C18.5163 44.7655 18.3937 45.1632 18.3937 45.5927C18.3937 46.9156 19.4699 47.9919 20.7929 47.9919H27.1907C28.5137 47.9919 29.5899 46.9156 29.5899 45.5927C29.5899 45.1632 29.4673 44.7656 29.2689 44.4164C29.9401 43.9906 30.3896 43.2458 30.3896 42.3938C30.3896 41.9643 30.2671 41.5667 30.0686 41.2175C30.7398 40.7917 31.1893 40.0469 31.1893 39.1949C31.1893 38.6871 31.0287 38.2177 30.7586 37.8295C31.5407 37.3245 32.1213 36.5175 32.3249 35.5266C32.4428 34.9561 32.5357 34.4622 32.6201 34.0173C33.0754 31.5955 33.2284 30.7797 35.8534 26.8428C35.9041 26.7666 35.9408 26.6834 35.9627 26.5976C36.4672 26.0305 36.9134 25.4243 37.3276 24.7998H39.9863C40.2893 24.7998 40.5658 24.6287 40.7017 24.3577L42.1645 21.4314L44.0131 28.2092C44.1036 28.5407 44.3957 28.7774 44.7394 28.7973C44.7542 28.7981 44.7699 28.7985 44.7847 28.7985C45.1104 28.7985 45.4056 28.6006 45.5274 28.296L46.9215 24.8109L47.9672 24.832L48 23.2325L46.4005 23.2001ZM27.1907 46.3922H20.7929C20.3516 46.3922 19.9932 46.0333 19.9932 45.5925C19.9932 45.1516 20.3516 44.7928 20.7929 44.7928H27.1907C27.632 44.7928 27.9904 45.1516 27.9904 45.5925C27.9904 46.0333 27.632 46.3922 27.1907 46.3922ZM27.9904 43.1933H27.1907H20.7929H19.9932C19.5519 43.1933 19.1934 42.8344 19.1934 42.3936C19.1934 41.9527 19.5519 41.5938 19.9932 41.5938H27.9904C28.4317 41.5938 28.7902 41.9527 28.7902 42.3936C28.7902 42.8344 28.4317 43.1933 27.9904 43.1933ZM28.7902 39.9944H27.9904H19.9932H19.1934C18.7522 39.9944 18.3937 39.6355 18.3937 39.1947C18.3937 38.7538 18.7522 38.3949 19.1934 38.3949H28.7902C29.2314 38.3949 29.5899 38.7538 29.5899 39.1947C29.5899 39.6355 29.2314 39.9944 28.7902 39.9944ZM34.478 25.85C34.3476 25.9887 34.2734 26.1663 34.2617 26.3491C31.704 30.2317 31.5063 31.2853 31.048 33.7215C30.966 34.1573 30.8747 34.6419 30.7583 35.2034C30.5662 36.1406 29.7859 36.7955 28.862 36.7955H28.7902H27.3439L29.4607 24.7996H30.3896C31.7126 24.7996 32.7888 23.7234 32.7888 22.4004V19.2015H35.188C35.63 19.2015 35.9877 18.8434 35.9877 18.4018V14.4031C35.9877 13.0802 34.9115 12.004 33.5885 12.004V9.60478C33.5885 8.28183 32.5123 7.2056 31.1893 7.2056H30.3896C30.3896 5.88265 29.3134 4.80642 27.9904 4.80642H25.5913C25.1492 4.80642 24.7915 5.16449 24.7915 5.60614V23.9999C24.7915 24.4415 25.1492 24.7996 25.5913 24.7996H27.8373L25.7204 36.7955H22.2633L20.1464 24.7996H22.3923C22.8344 24.7996 23.1921 24.4415 23.1921 23.9999V5.60614C23.1921 5.16449 22.8344 4.80642 22.3923 4.80642H19.9932C18.6702 4.80642 17.594 5.88265 17.594 7.2056H16.7943C15.4713 7.2056 14.3951 8.28183 14.3951 9.60478V12.004C13.0721 12.004 11.9959 13.0802 11.9959 14.4031V20.0012C11.9959 20.4429 12.3536 20.801 12.7956 20.801H15.1948V22.4004C15.1948 23.7234 16.271 24.7996 17.594 24.7996H18.5229L20.6397 36.7955H19.1934H19.1216C18.1977 36.7955 17.4174 36.1406 17.2253 35.2015C17.109 34.6419 17.0176 34.1574 16.9356 33.7215C16.4772 31.2853 16.2795 30.2317 13.7219 26.3491C13.7102 26.1663 13.636 25.9887 13.5056 25.85C10.9845 23.1798 9.59672 19.6829 9.59672 16.0026C9.59672 8.0651 16.0547 1.60751 23.9918 1.60751C31.9289 1.60751 38.3869 8.0651 38.3869 16.0026C38.3869 19.6829 36.9991 23.1798 34.478 25.85ZM29.5899 13.6034V11.2042C29.5899 10.7626 29.2322 10.4045 28.7902 10.4045H26.391V6.40587H27.9904C28.4317 6.40587 28.7902 6.76475 28.7902 7.2056V8.00532C28.7902 8.44697 29.1478 8.80505 29.5899 8.80505H31.1893C31.6306 8.80505 31.9891 9.16393 31.9891 9.60478V12.8037C31.9891 13.2453 32.3467 13.6034 32.7888 13.6034H33.5885C34.0298 13.6034 34.3883 13.9623 34.3883 14.4031V17.602H31.9891H28.7902C28.3481 17.602 27.9904 17.9601 27.9904 18.4018V20.0012H29.5899V19.2015H31.1893V22.4004C31.1893 22.8413 30.8309 23.2001 30.3896 23.2001H26.391V12.004H27.9904V13.6034H29.5899ZM15.9945 16.0026C15.5525 16.0026 15.1948 16.3607 15.1948 16.8023V19.2015H13.5954V14.4031C13.5954 13.9623 13.9538 13.6034 14.3951 13.6034H15.1948C15.6369 13.6034 15.9945 13.2453 15.9945 12.8037V9.60478C15.9945 9.16393 16.353 8.80505 16.7943 8.80505H17.594V10.4045H19.1934V8.00532V7.2056C19.1934 6.76475 19.5519 6.40587 19.9932 6.40587H21.5926V23.2001H17.594C17.1527 23.2001 16.7943 22.8413 16.7943 22.4004V20.0012V17.602H18.3937V16.0026H15.9945Z" fill="#008040"/>
</svg>
