<svg width="24" height="24" viewBox="0 0 24 24" fill="none" xmlns="http://www.w3.org/2000/svg">
<path d="M12 0C18.6269 0 24 5.373 24 12C24 18.6271 18.627 24 12 24C5.37308 24 0 18.627 0 12C0 5.37308 5.37225 0 12 0Z" fill="#3F729B"/>
<path d="M16.141 5.24854H7.85731C6.41806 5.24854 5.24805 6.41929 5.24805 7.8578V16.1423C5.24805 17.5816 6.4188 18.7516 7.85731 18.7516H16.1418C17.5811 18.7516 18.7511 17.5808 18.7511 16.1423V7.8578C18.751 6.41929 17.5803 5.24854 16.141 5.24854ZM16.963 6.7583L17.2585 6.75756V8.99857L15.0011 9.00607L14.9936 6.76506L16.963 6.7583ZM11.9996 9.74101C13.8723 9.74101 14.2585 11.499 14.2585 12.0007C14.2585 13.245 13.2446 14.2589 11.9996 14.2589C10.7538 14.2589 9.74061 13.245 9.74061 12.0007C9.73978 11.499 10.1268 9.74101 11.9996 9.74101ZM17.2713 15.9788C17.2713 16.6921 16.6916 17.2725 15.9768 17.2725H7.99679C7.28276 17.2725 6.70229 16.6928 6.70229 15.9788V10.497H8.57726C8.40327 10.9253 8.30498 11.5103 8.30498 12.0008C8.30498 14.0363 9.96098 15.6931 11.9973 15.6931C14.0336 15.6931 15.6887 14.0363 15.6887 12.0008C15.6887 11.5103 15.5904 10.9253 15.4172 10.497H17.2697V15.9788H17.2713Z" fill="white"/>
</svg>
