<svg width="54" height="54" viewBox="0 0 54 54" fill="none" xmlns="http://www.w3.org/2000/svg">
<g clip-path="url(#clip0)">
<path d="M26.9996 16.1184C21.029 16.1184 17.3203 19.175 17.3203 24.1267C17.3203 24.6894 17.7765 25.1456 18.3392 25.1456H35.6599C36.2226 25.1456 36.6788 24.6894 36.6788 24.1267C36.6788 19.1852 32.9701 16.1184 26.9996 16.1184ZM19.4294 23.1078C20.1018 18.5331 25.3286 18.1561 26.9996 18.1561C28.6705 18.1561 33.8973 18.5331 34.5697 23.1078H19.4294Z" fill="#008040"/>
<path d="M26.9998 5.42041C24.3269 5.42041 22.1602 7.58716 22.1602 10.26C22.1658 12.9306 24.3292 15.094 26.9998 15.0996C29.6727 15.0996 31.8394 12.9329 31.8394 10.26C31.8394 7.58716 29.6727 5.42041 26.9998 5.42041ZM26.9998 13.0619C25.4524 13.0619 24.1979 11.8074 24.1979 10.26C24.1979 8.71262 25.4524 7.45814 26.9998 7.45814C28.5472 7.45814 29.8017 8.71262 29.8017 10.26C29.8017 11.8074 28.5472 13.0619 26.9998 13.0619Z" fill="#008040"/>
<path d="M9.67924 39.5525C3.70868 39.5525 0 42.6091 0 47.5608C0 48.1235 0.456198 48.5797 1.01887 48.5797H18.3396C18.9023 48.5797 19.3585 48.1235 19.3585 47.5608C19.3585 42.6193 15.6498 39.5525 9.67924 39.5525ZM2.10906 46.5419C2.78151 41.9672 7.99811 41.5902 9.67924 41.5902C11.3604 41.5902 16.577 41.9672 17.2494 46.5419H2.10906Z" fill="#008040"/>
<path d="M9.67947 28.8542C7.0066 28.8542 4.83984 31.021 4.83984 33.6939C4.84545 36.3645 7.00889 38.5279 9.67947 38.5335C12.3523 38.5335 14.5191 36.3668 14.5191 33.6939C14.5191 31.021 12.3523 28.8542 9.67947 28.8542ZM9.67947 36.4958C8.13206 36.4958 6.87758 35.2413 6.87758 33.6939C6.87758 32.1465 8.13206 30.892 9.67947 30.892C11.2269 30.892 12.4814 32.1465 12.4814 33.6939C12.4814 35.2413 11.2269 36.4958 9.67947 36.4958Z" fill="#008040"/>
<path d="M44.3208 39.5525C38.3503 39.5525 34.6416 42.6091 34.6416 47.5608C34.6416 48.1235 35.0978 48.5797 35.6605 48.5797H52.9812C53.5439 48.5797 54.0001 48.1235 54.0001 47.5608C54.0001 42.6193 50.2914 39.5525 44.3208 39.5525ZM36.7507 46.5419C37.4231 41.9672 42.6397 41.5902 44.3208 41.5902C46.002 41.5902 51.2186 41.9672 51.891 46.5419H36.7507Z" fill="#008040"/>
<path d="M44.3211 28.8542C41.6482 28.8542 39.4814 31.021 39.4814 33.6939C39.487 36.3645 41.6505 38.5279 44.3211 38.5335C46.9939 38.5335 49.1607 36.3668 49.1607 33.6939C49.1607 31.021 46.9939 28.8542 44.3211 28.8542ZM44.3211 36.4958C42.7737 36.4958 41.5192 35.2413 41.5192 33.6939C41.5192 32.1465 42.7737 30.892 44.3211 30.892C45.8685 30.892 47.123 32.1465 47.123 33.6939C47.123 35.2413 45.8685 36.4958 44.3211 36.4958Z" fill="#008040"/>
<path d="M32.2676 37.7897L28.0189 33.5207V27.5093C28.0189 26.9467 27.5627 26.4905 27 26.4905C26.4374 26.4905 25.9812 26.9467 25.9812 27.5093V33.5207L21.7325 37.7693C21.3302 38.1661 21.3256 38.8138 21.7223 39.2161C22.119 39.6185 22.7668 39.623 23.1691 39.2263L27 35.3852L30.831 39.2263C31.2584 39.5924 31.9016 39.5426 32.2676 39.1151C32.5943 38.7337 32.5943 38.1712 32.2676 37.7897Z" fill="#008040"/>
</g>
<defs>
<clipPath id="clip0">
<rect width="54" height="54" fill="white"/>
</clipPath>
</defs>
</svg>
