<svg width="40" height="40" viewBox="0 0 40 40" fill="none" xmlns="http://www.w3.org/2000/svg">
<g clip-path="url(#clip0)">
<path d="M35.2344 27.9324H36.4062C38.3484 27.9324 40 26.3622 40 24.4167V18.5574H37.5781V13.8699H35.2344V18.5574H32.8906V13.8699H30.5469V18.5574H28.2031V24.4167C28.2031 26.3552 29.7803 27.9324 31.7188 27.9324H32.8906C32.8906 33.1448 28.685 37.3855 23.5156 37.3855C18.3463 37.3855 14.1406 33.1448 14.1406 27.9324V27.3028C14.8306 27.7029 15.6311 27.9324 16.4844 27.9324C18.1787 27.9324 19.7235 27.0046 20.5453 25.5569C22.8741 25.2859 24.6875 23.3013 24.6875 20.9011C24.6875 20.4366 24.6179 19.9758 24.4839 19.5349C25.3537 18.6706 25.8594 17.488 25.8594 16.2136C25.8594 14.9392 25.3537 13.7563 24.4839 12.8924C24.6179 12.4514 24.6875 11.9906 24.6875 11.5261C24.6875 9.12561 22.8741 7.14105 20.5453 6.87006C19.7235 5.4223 18.1787 4.49487 16.4844 4.49487C15.0769 4.49487 13.8135 5.11926 12.9535 6.10437C12.8772 6.01923 12.7991 5.93561 12.7161 5.85535C11.8118 4.97797 10.6253 4.49487 9.375 4.49487C7.68066 4.49487 6.13586 5.4223 5.31403 6.87006C2.98523 7.14105 1.17188 9.12561 1.17188 11.5261C1.17188 11.9906 1.24146 12.4514 1.37543 12.8924C0.505676 13.7563 0 14.9389 0 16.2136C0 17.488 0.505676 18.6709 1.37543 19.5349C1.24146 19.9758 1.17188 20.4366 1.17188 20.9011C1.17188 23.3013 2.98523 25.2859 5.31403 25.5569C6.13586 27.0046 7.68066 27.9324 9.375 27.9324C10.2365 27.9324 11.0675 27.7029 11.7969 27.2732V27.9324C11.7969 34.4372 17.0538 39.7292 23.5156 39.7292C29.9774 39.7292 35.2344 34.4372 35.2344 27.9324ZM31.7188 25.5886C31.0727 25.5886 30.5469 25.0628 30.5469 24.4167V20.9011H37.6562V24.4167C37.6562 25.0408 37.0721 25.5886 36.4062 25.5886H31.7188ZM16.4844 6.83862C17.4664 6.83862 18.349 7.46881 18.6804 8.40723L18.9746 9.23975C19.8773 9.18665 19.8755 9.18237 20 9.18237C21.3458 9.18237 22.4237 10.3207 22.3389 11.6732C20.8871 11.3015 19.2984 11.6488 17.9315 12.6721L19.3359 14.5483C21.3861 13.0132 23.5156 14.3435 23.5156 16.2136C23.5156 18.0413 21.4249 19.4421 19.3359 17.8787L17.9315 19.7552C19.212 20.7137 20.7895 21.1495 22.3389 20.7528C22.4246 22.1075 21.3443 23.2449 20 23.2449C19.8752 23.2449 19.8691 23.24 18.9746 23.1875L18.6804 24.0197C18.349 24.9581 17.4664 25.5886 16.4844 25.5886C15.1923 25.5886 14.1406 24.5373 14.1406 23.2449C14.1406 22.203 14.1406 18.0276 14.1406 17.3855H16.4844V15.0417H14.1406C14.1406 12.5283 14.1406 11.929 14.1406 9.18237C14.1406 7.88995 15.192 6.83862 16.4844 6.83862ZM9.375 25.5886C8.39294 25.5886 7.51038 24.9581 7.17896 24.0197L6.88477 23.1875C6.01349 23.2385 5.98602 23.2449 5.85938 23.2449C4.51263 23.2449 3.43506 22.105 3.52051 20.7528C3.89862 20.8495 4.28558 20.8993 4.6759 20.8993C5.7843 20.8993 6.91711 20.512 7.92786 19.7549L6.52344 17.8787C4.47327 19.4137 2.34375 18.0831 2.34375 16.2136C2.34375 15.3201 2.84058 14.5162 3.64044 14.1158C4.51843 13.6764 5.56915 13.8339 6.52344 14.5483L7.92786 12.6721C6.56097 11.6485 4.97223 11.3015 3.52051 11.6732C3.43567 10.3219 4.51263 9.18237 5.85938 9.18237C5.98694 9.18237 6.01105 9.18848 6.88477 9.23975L7.17896 8.40723C7.51038 7.46881 8.39294 6.83862 9.375 6.83862C10.6879 6.83862 11.7969 7.91193 11.7969 9.18237V15.0417H9.375V17.3855H11.7969V23.2449C11.7969 24.5153 10.6879 25.5886 9.375 25.5886Z" fill="#008040"/>
<path d="M34.5099 6.83868L33.014 9.83002L35.1105 10.8783L38.3021 4.49493H33.5874L35.1172 1.33331L33.0073 0.3125L29.8496 6.83868H34.5099Z" fill="#008040"/>
</g>
<defs>
<clipPath id="clip0">
<rect width="40" height="40" fill="white"/>
</clipPath>
</defs>
</svg>
