<svg width="24" height="24" viewBox="0 0 24 24" fill="none" xmlns="http://www.w3.org/2000/svg">
<path d="M12 0C18.6277 0 24 5.373 24 12C24 18.6278 18.6277 24 12 24C5.37217 24 0 18.6277 0 12C0 5.373 5.37225 0 12 0Z" fill="#26A6D1"/>
<path d="M19.5018 8.08415C18.9776 8.31063 18.4135 8.46287 17.8218 8.53191C18.4263 8.18013 18.8898 7.62437 19.1081 6.96068C18.5426 7.28692 17.917 7.5232 17.2503 7.64991C16.717 7.09868 15.9573 6.75439 15.1158 6.75439C13.5018 6.75439 12.1924 8.02418 12.1924 9.59161C12.1924 9.81438 12.2179 10.0311 12.2681 10.2389C9.83807 10.1204 7.68257 8.99013 6.2411 7.27341C5.98909 7.69267 5.84508 8.17939 5.84508 8.69989C5.84508 9.68388 6.36105 10.5539 7.1456 11.0617C6.66563 11.0467 6.21556 10.9199 5.82037 10.7062V10.7422C5.82037 12.1177 6.82833 13.2645 8.16633 13.5254C7.92108 13.59 7.66305 13.6252 7.39604 13.6252C7.2078 13.6252 7.02482 13.608 6.84629 13.5742C7.21826 14.7022 8.29831 15.5227 9.57856 15.5453C8.57735 16.3072 7.31654 16.7603 5.94633 16.7603C5.71006 16.7603 5.47757 16.7467 5.24805 16.7205C6.54329 17.526 8.07933 17.9963 9.73154 17.9963C15.1106 17.9963 18.0521 13.6703 18.0521 9.92024L18.0438 9.55273C18.6138 9.15366 19.1096 8.65417 19.5018 8.08415Z" fill="white"/>
</svg>
